HIERARCHY
ROOT Hips
{
	OFFSET 0.00000 0.00000 0.00000
	CHANNELS 6 Xposition Yposition Zposition Zrotation Yrotation Xrotation 
	JOINT LHipJoint
	{
		OFFSET 0 0 0
		CHANNELS 3 Zrotation Yrotation Xrotation
		JOINT LeftHip
		{
			OFFSET 1.59801 -1.77853 0.57028
			CHANNELS 3 Zrotation Yrotation Xrotation
			JOINT LeftKnee
			{
				OFFSET 2.39439 -6.57854 0.00000
				CHANNELS 3 Zrotation Yrotation Xrotation
				JOINT LeftAnkle
				{
					OFFSET 2.69334 -7.39989 0.00000
					CHANNELS 3 Zrotation Yrotation Xrotation
					JOINT LeftToe
					{
						OFFSET 0.09553 -0.26245 1.73747
						CHANNELS 3 Zrotation Yrotation Xrotation
						End Site
						{
							OFFSET 0.00000 -0.00000 0.89391
						}
					}
				}
			}
		}
	}
	JOINT RHipJoint
	{
		OFFSET 0 0 0
		CHANNELS 3 Zrotation Yrotation Xrotation
		JOINT RightHip
		{
			OFFSET -1.54704 -1.77852 0.57028
			CHANNELS 3 Zrotation Yrotation Xrotation
			JOINT RightKnee
			{
				OFFSET -2.40286 -6.60180 0.00000
				CHANNELS 3 Zrotation Yrotation Xrotation
				JOINT RightAnkle
				{
					OFFSET -2.63873 -7.24984 0.00000
					CHANNELS 3 Zrotation Yrotation Xrotation
					JOINT RightToe
					{
						OFFSET -0.15631 -0.42945 1.84436
						CHANNELS 3 Zrotation Yrotation Xrotation
						End Site
						{
							OFFSET -0.00000 -0.00000 0.95734
						}
					}
				}
			}
		}
	}
	JOINT lowerback
	{
		OFFSET 0 0 0
		CHANNELS 3 Zrotation Yrotation Xrotation
		JOINT Chest
		{
			OFFSET -0.00436 1.89866 -0.04018
			CHANNELS 3 Zrotation Yrotation Xrotation
			JOINT Chest2
			{
				OFFSET 0.02031 1.88273 0.09634
				CHANNELS 3 Zrotation Yrotation Xrotation
				JOINT lowerneck
				{
					OFFSET 0 0 0
					CHANNELS 3 Zrotation Yrotation Xrotation
					JOINT Neck
					{
						OFFSET -0.13105 1.89371 0.23083
						CHANNELS 3 Zrotation Yrotation Xrotation
						JOINT Head
						{
							OFFSET 0.17062 1.83990 -0.54062
							CHANNELS 3 Zrotation Yrotation Xrotation
							End Site
							{
								OFFSET 0.04576 1.94782 -0.21839
							}
						}
					}
				}
				JOINT LeftCollar
				{
					OFFSET 0 0 0
					CHANNELS 3 Zrotation Yrotation Xrotation
					JOINT LeftShoulder
					{
						OFFSET 3.12424 1.09204 0.22226
CHANNELS 3 Zrotation Xrotation Yrotation
						JOINT LeftElbow
						{
OFFSET 0 -5.292770 0.000000
CHANNELS 3 Zrotation Xrotation Yrotation
							JOINT LeftWrist
							{
OFFSET 0 -2.852260 0.000000
CHANNELS 3 Zrotation Xrotation Yrotation
								JOINT lhand
								{
									OFFSET 0 0 0
CHANNELS 3 Zrotation Xrotation Yrotation
									JOINT LFingers
									{
OFFSET 0 -0.602100 0.000000
CHANNELS 3 Zrotation Xrotation Yrotation
										End Site
										{
OFFSET 0 -0.485430 0.000000
										}
									}
								}
								JOINT LThumb
								{
OFFSET 0 0.000000 0.000000
CHANNELS 3 Zrotation Xrotation Yrotation
									End Site
									{
OFFSET 0 -0.492840 0.492840
									}
								}
							}
						}
					}
				}
				JOINT RightCollar
				{
					OFFSET 0 0 0
					CHANNELS 3 Zrotation Yrotation Xrotation
					JOINT RightShoulder
					{
						OFFSET -2.91709 1.01504 0.30199
CHANNELS 3 Zrotation Xrotation Yrotation
						JOINT RightElbow
						{
OFFSET 0 -5.133040 0.000000
CHANNELS 3 Zrotation Xrotation Yrotation
							JOINT RightWrist
							{
OFFSET 0 -2.743050 0.000000
CHANNELS 3 Zrotation Xrotation Yrotation
								JOINT rhand
								{
									OFFSET 0 0 0
CHANNELS 3 Zrotation Xrotation Yrotation
									JOINT RFingers
									{
OFFSET 0 -0.767980 0.000000
CHANNELS 3 Zrotation Xrotation Yrotation
										End Site
										{
OFFSET 0 -0.619160 0.000000
										}
									}
								}
								JOINT RThumb
								{
OFFSET 0 0.000000 0.000000
CHANNELS 3 Zrotation Xrotation Yrotation
									End Site
									{
OFFSET 0 -0.628620 0.628620
									}
								}
							}
						}
					}
				}
			}
		}
	}
}
MOTION
Frames: 12
Frame Time: 0.008333333333333333
-0.199410 17.093326 0.765233 -4.912545 -1.589962 3.018032 0.000000 0.000000 0.000000 -11.199216 -12.359501 -7.487289 2.678950 10.156221 29.483985 1.449512 -2.139812 -22.169642 0.874649 -5.962573 -16.675925 0.000000 0.000000 0.000000 24.225484 8.032300 -3.306967 -1.213539 -6.988015 19.679845 -0.917553 2.619273 -17.409147 -0.264273 3.306816 -9.134161 -1.851484 0.209573 -3.103137 0.325439 0.326881 -1.687494 1.381256 0.176467 -0.002896 -19.691966 -9.610555 -11.950239 7.254139 -11.397795 30.488793 4.305131 -6.428745 14.081390 0.000000 0.000000 0.000000 46.247387 -9.706618 -111.456664 115.367177 -57.422715 81.778485 19.653642 2.232935 -5.188139 0.000000 0.000000 0.000000 -7.125000 0.000000 0.000000 -5.858975 35.437501 -1.383457 0.000000 0.000000 0.000000 -22.648382 -18.442934 -20.597799 -139.888042 -48.136017 -101.477451 -41.458732 -43.798424 5.877173 0.000000 0.000000 0.000000 7.125000 0.000000 0.000000 -12.560886 37.526997 -2.355388
-0.139039 17.100913 0.769899 -4.689643 -1.899372 3.026588 0.000000 0.000000 0.000000 -11.797612 -12.503227 -7.224264 2.644727 10.096348 29.289356 1.447192 -1.889852 -22.211779 0.734715 -5.476040 -15.271596 0.000000 0.000000 0.000000 23.742231 8.203935 -3.275189 -1.215445 -6.993346 19.695743 -0.914098 2.563277 -17.385928 -0.325311 3.665900 -10.138400 -1.760716 0.363392 -3.089407 1.217530 0.526839 -1.654061 2.251903 0.279273 0.008041 -19.735154 -9.592227 -12.419182 6.478959 -11.051845 31.588354 4.055722 -6.394100 14.576606 0.000000 0.000000 0.000000 45.506339 -9.073991 -111.488756 113.576345 -57.791816 80.266413 18.330297 2.688111 -4.228163 0.000000 0.000000 0.000000 -7.125000 0.000000 0.000000 -6.848560 34.370749 -1.797455 0.000000 0.000000 0.000000 -22.114545 -19.155929 -20.308471 -140.513341 -47.762858 -101.941768 -40.915728 -43.919142 6.177759 0.000000 0.000000 0.000000 7.125000 0.000000 0.000000 -12.135396 37.871298 -2.168193
-0.064174 17.101432 0.775972 -3.991585 -2.049731 2.949845 0.000000 0.000000 0.000000 -12.980069 -12.739409 -6.836459 2.592910 10.004872 28.992540 1.438544 -1.348628 -22.284352 0.720191 -5.422428 -15.117508 0.000000 0.000000 0.000000 22.726596 8.613805 -3.383766 -1.289106 -7.194132 20.291885 -0.951419 2.401079 -17.782517 -0.337518 3.731541 -10.322829 -1.791854 0.418835 -3.026524 2.137156 0.598393 -1.676186 3.218340 0.320480 -0.064751 -19.676503 -9.501936 -12.680579 5.942288 -10.747836 32.636082 3.886516 -6.347426 15.031895 0.000000 0.000000 0.000000 45.239354 -8.487565 -111.597299 112.199584 -58.053137 79.099716 19.264039 2.543142 -4.313471 0.000000 0.000000 0.000000 -7.125000 0.000000 0.000000 -6.091668 34.499364 -1.580079 0.000000 0.000000 0.000000 -20.890346 -19.473955 -20.118640 -141.280674 -47.292495 -102.507754 -40.354189 -44.363868 7.089995 0.000000 0.000000 0.000000 7.125000 0.000000 0.000000 -11.764991 38.989982 -1.770545
0.026215 17.102574 0.784853 -2.921153 -2.084397 2.809260 0.000000 0.000000 0.000000 -14.607032 -12.732373 -6.411908 2.497864 9.833983 28.440650 1.396342 -1.126585 -22.008744 0.666207 -5.219875 -14.536809 0.000000 0.000000 0.000000 21.254797 9.066409 -3.539912 -1.399822 -7.484339 21.158517 -1.003166 2.091710 -18.343394 -0.369878 3.906342 -10.813310 -1.830320 0.524891 -2.928651 3.009164 0.739090 -1.707738 4.146025 0.397670 -0.175313 -19.252988 -9.476459 -12.744809 5.382358 -10.673934 33.575996 3.606668 -6.358766 15.407649 0.000000 0.000000 0.000000 45.206547 -8.443604 -112.263425 110.764787 -58.306361 77.880596 20.370779 3.054679 -5.286275 0.000000 0.000000 0.000000 -7.125000 0.000000 0.000000 -5.273966 35.575839 -1.225728 0.000000 0.000000 0.000000 -19.630964 -19.968452 -20.251644 -140.921630 -47.514202 -102.243360 -40.985807 -44.394180 5.781413 0.000000 0.000000 0.000000 7.125000 0.000000 0.000000 -12.141484 37.366540 -2.322643
0.123209 17.098528 0.790652 -2.063225 -1.640378 2.699066 0.000000 0.000000 0.000000 -15.902197 -12.687540 -6.219126 2.424526 9.699472 28.008815 1.336998 -1.351128 -21.463652 0.651820 -5.164458 -14.378112 0.000000 0.000000 0.000000 20.073176 9.471629 -3.657524 -1.512376 -7.766517 22.007224 -1.054567 1.315797 -19.015937 -0.397532 4.048056 -11.211826 -1.627372 0.457267 -2.803374 4.141403 0.644723 -1.780183 5.208528 0.358495 -0.324813 -18.915030 -9.414390 -12.728861 5.192718 -10.669129 34.334870 3.485508 -6.357302 15.727759 0.000000 0.000000 0.000000 45.168700 -8.542778 -112.705944 109.421757 -58.525587 76.736459 18.925974 3.192823 -4.034373 0.000000 0.000000 0.000000 -7.125000 0.000000 0.000000 -6.341114 34.191635 -1.691014 0.000000 0.000000 0.000000 -18.834497 -20.527344 -20.444269 -140.788431 -47.595797 -102.145145 -40.206265 -43.738786 6.970125 0.000000 0.000000 0.000000 7.125000 0.000000 0.000000 -11.620547 38.823346 -1.796741
0.219365 17.096310 0.800771 -0.899552 -0.964151 2.565113 0.000000 0.000000 0.000000 -17.487002 -12.610205 -5.964748 2.330807 9.523513 27.447168 1.275613 -1.876604 -20.817948 0.565296 -4.812769 -13.375718 0.000000 0.000000 0.000000 18.588713 9.733470 -3.650899 -1.621037 -8.027498 22.797848 -1.115006 0.445686 -19.824905 -0.505624 4.555586 -12.645639 -1.762316 0.372108 -2.878292 5.192568 0.534289 -1.808200 6.394367 0.310762 -0.314985 -18.617358 -9.288220 -12.519521 5.912213 -10.932117 34.851347 3.723365 -6.353041 15.994335 0.000000 0.000000 0.000000 45.294444 -9.260105 -113.263476 108.470294 -58.670760 75.924345 20.257271 4.117666 -3.587847 0.000000 0.000000 0.000000 -7.125000 0.000000 0.000000 -5.212584 33.769818 -1.441528 0.000000 0.000000 0.000000 -18.784609 -21.408830 -20.621173 -140.779072 -47.601471 -102.138234 -40.569887 -43.780495 6.954368 0.000000 0.000000 0.000000 7.125000 0.000000 0.000000 -11.936824 38.836758 -1.843372
0.314662 17.092075 0.805791 -0.296652 -0.628361 2.661110 0.000000 0.000000 0.000000 -18.341551 -12.125205 -6.219998 2.282156 9.430599 27.151792 1.219981 -2.666920 -20.167889 0.569601 -4.833136 -13.433421 0.000000 0.000000 0.000000 17.661979 10.251630 -3.707096 -1.683874 -8.174077 23.244107 -1.150977 -0.222250 -20.368796 -0.526631 4.650339 -12.914034 -1.186440 0.308762 -3.071734 6.188944 0.435587 -1.894282 7.124662 0.263238 -0.289161 -18.617099 -9.282286 -12.412708 6.950163 -11.403972 35.334895 4.108560 -6.431059 16.370092 0.000000 0.000000 0.000000 45.442323 -9.789087 -113.526295 108.016468 -58.737278 75.536586 20.919614 4.334238 -4.598506 0.000000 0.000000 0.000000 -7.125000 0.000000 0.000000 -4.755502 34.869996 -1.186329 0.000000 0.000000 0.000000 -18.662159 -22.536324 -20.346174 -140.845494 -47.560941 -102.187252 -40.389675 -43.652893 6.827438 0.000000 0.000000 0.000000 7.125000 0.000000 0.000000 -11.763185 38.658170 -1.868053
0.383761 17.101533 0.809200 0.354645 -0.032322 2.782430 0.000000 0.000000 0.000000 -19.089893 -11.511526 -6.413995 2.181228 9.233809 26.529582 1.144560 -3.757035 -19.321944 0.500513 -4.534909 -12.586780 0.000000 0.000000 0.000000 16.809450 10.613249 -3.748290 -1.740128 -8.302443 23.636424 -1.178525 -0.903318 -20.862578 -0.445088 4.280652 -11.867519 -0.838340 0.118446 -3.044231 6.770318 0.186606 -2.152129 7.541853 0.148716 -0.540922 -18.253182 -9.403446 -12.455311 7.797165 -12.109217 35.982852 4.307386 -6.581105 16.881012 0.000000 0.000000 0.000000 45.272968 -10.171946 -114.461842 108.090411 -58.726546 75.599753 21.864152 4.015898 -4.979013 0.000000 0.000000 0.000000 -7.125000 0.000000 0.000000 -4.005951 35.319533 -0.954505 0.000000 0.000000 0.000000 -18.329748 -22.892421 -19.904828 -141.183911 -47.352679 -102.436587 -40.131415 -43.399423 7.027830 0.000000 0.000000 0.000000 7.125000 0.000000 0.000000 -11.561990 38.889889 -1.768233
0.430135 17.103181 0.830605 0.955799 0.632711 2.855989 0.000000 0.000000 0.000000 -19.757447 -11.051540 -6.394382 2.090754 9.052560 25.959971 1.086195 -4.645782 -18.698817 0.550777 -4.749979 -13.197698 0.000000 0.000000 0.000000 16.122337 10.731316 -3.668542 -1.785974 -8.405287 23.951929 -1.193110 -1.783429 -21.350558 -0.494274 4.507500 -12.509056 -0.615079 -0.130141 -3.262420 6.944486 -0.146703 -2.354780 7.592144 -0.015544 -0.583109 -18.167519 -9.504146 -12.056168 8.932036 -12.860996 36.060507 4.678338 -6.754516 17.068418 0.000000 0.000000 0.000000 44.402665 -10.270639 -115.120039 107.132976 -58.861137 74.780809 21.929607 4.631819 -4.575754 0.000000 0.000000 0.000000 -7.125000 0.000000 0.000000 -3.919403 34.889477 -0.974851 0.000000 0.000000 0.000000 -18.101005 -22.961080 -19.537503 -141.209993 -47.336451 -102.455779 -39.583397 -42.869537 7.545588 0.000000 0.000000 0.000000 7.125000 0.000000 0.000000 -11.139259 39.493591 -1.534094
0.434878 17.099960 0.836045 0.872214 1.226116 3.063654 0.000000 0.000000 0.000000 -19.494576 -10.884107 -6.962017 2.119312 9.110352 26.141073 1.049271 -5.396823 -18.313275 0.611189 -5.002770 -13.916552 0.000000 0.000000 0.000000 16.359274 11.155158 -3.654607 -1.809143 -8.456738 24.110121 -1.191878 -2.715159 -21.763832 -0.482720 4.455101 -12.360769 -0.297442 -0.289989 -3.392114 6.941940 -0.362677 -2.519659 7.398523 -0.123595 -0.652962 -18.150075 -9.772668 -11.980925 9.795652 -13.670004 36.062572 4.906365 -6.984243 17.309312 0.000000 0.000000 0.000000 43.392596 -10.423901 -115.483514 105.693615 -59.048504 73.547634 22.054733 6.007708 -4.075416 0.000000 0.000000 0.000000 -7.125000 0.000000 0.000000 -3.778560 34.356933 -0.988762 0.000000 0.000000 0.000000 -18.172976 -23.224126 -19.794612 -141.368380 -47.237922 -102.572160 -39.667076 -43.005148 7.795283 0.000000 0.000000 0.000000 7.125000 0.000000 0.000000 -11.240816 39.817159 -1.457512
0.409896 17.093446 0.847501 0.747172 1.817399 3.180832 0.000000 0.000000 0.000000 -19.190918 -11.222145 -7.256817 2.180831 9.232885 26.526733 1.053386 -5.913061 -18.327723 0.516018 -4.604170 -12.782938 0.000000 0.000000 0.000000 16.662469 11.061286 -3.705414 -1.828443 -8.499139 24.240759 -1.190210 -3.086757 -21.930757 -0.422736 4.172770 -11.563262 -0.318966 -0.475616 -3.609491 6.564756 -0.615434 -2.570467 6.995497 -0.254438 -0.552686 -18.319094 -10.034615 -11.753319 10.465723 -14.353045 35.994115 5.102939 -7.219728 17.463329 0.000000 0.000000 0.000000 42.755575 -10.582843 -115.329496 104.461867 -59.194748 72.490458 22.541589 7.142397 -3.545607 0.000000 0.000000 0.000000 -7.125000 0.000000 0.000000 -3.343273 33.803905 -0.919379 0.000000 0.000000 0.000000 -18.561373 -23.542269 -20.339787 -141.432428 -47.197963 -102.619140 -40.176803 -43.789821 7.346569 0.000000 0.000000 0.000000 7.125000 0.000000 0.000000 -11.640239 39.299497 -1.661313
0.351981 17.085177 0.854425 0.223933 1.961464 3.079873 0.000000 0.000000 0.000000 -18.451401 -11.562074 -7.267650 2.265438 9.398333 27.049577 1.100502 -5.866676 -18.743973 0.513735 -4.594069 -12.754364 0.000000 0.000000 0.000000 17.475245 10.786698 -3.639761 -1.820522 -8.481822 24.187362 -1.192236 -3.040996 -21.925743 -0.449981 4.303544 -11.932250 -0.354309 -0.450673 -3.563346 5.888225 -0.583843 -2.496291 6.292650 -0.245025 -0.509462 -18.473194 -10.250234 -11.442046 10.934105 -14.892498 35.927092 5.235534 -7.425919 17.549107 0.000000 0.000000 0.000000 42.918099 -10.932812 -114.988015 104.149127 -59.229871 72.221830 22.429277 7.885521 -3.125827 0.000000 0.000000 0.000000 -7.125000 0.000000 0.000000 -3.409018 33.346934 -0.975227 0.000000 0.000000 0.000000 -19.214224 -23.125193 -21.302812 -141.323054 -47.266173 -102.538842 -40.591708 -44.367459 6.412227 0.000000 0.000000 0.000000 7.125000 0.000000 0.000000 -11.886118 38.145247 -2.040544
